<svg width="40.000000" height="41.000000" viewBox="0 0 40 41" fill="none" xmlns="http://www.w3.org/2000/svg" xmlns:xlink="http://www.w3.org/1999/xlink">
	<desc>
			Created with Pixso.
	</desc>
	<defs/>
	<path id="Vector" d="M36.74 16.14C37.66 13.37 37.34 10.34 35.87 7.82C33.65 3.96 29.18 1.97 24.83 2.9C22.89 0.72 20.1 -0.52 17.18 -0.5C12.73 -0.52 8.78 2.35 7.41 6.59C4.54 7.18 2.07 8.97 0.63 11.51C-1.61 15.36 -1.1 20.22 1.89 23.52C0.97 26.29 1.29 29.33 2.76 31.85C4.98 35.71 9.44 37.7 13.8 36.76C15.74 38.95 18.52 40.19 21.44 40.17C25.9 40.18 29.85 37.31 31.22 33.07C34.09 32.48 36.56 30.69 38 28.16C40.23 24.3 39.72 19.45 36.74 16.14L36.74 16.14ZM21.45 37.51C19.66 37.52 17.94 36.89 16.57 35.75C16.63 35.72 16.74 35.66 16.81 35.61L24.91 30.94C25.32 30.7 25.58 30.26 25.57 29.78L25.57 18.36L29 20.34C29.03 20.36 29.06 20.39 29.06 20.43L29.06 29.89C29.06 34.1 25.65 37.5 21.45 37.51ZM5.07 30.52C4.17 28.98 3.85 27.17 4.16 25.41C4.22 25.45 4.32 25.51 4.4 25.55L12.5 30.23C12.91 30.47 13.42 30.47 13.83 30.23L23.72 24.52L23.72 28.48C23.72 28.52 23.7 28.56 23.67 28.58L15.48 33.31C11.84 35.41 7.18 34.16 5.07 30.52L5.07 30.52ZM2.94 12.84C3.83 11.29 5.23 10.11 6.9 9.5C6.9 9.57 6.9 9.69 6.9 9.78L6.9 19.13C6.9 19.61 7.15 20.05 7.56 20.28L17.45 25.99L14.03 27.97C14 27.99 13.95 28 13.91 27.98L5.73 23.25C2.09 21.14 0.84 16.48 2.94 12.84L2.94 12.84ZM31.06 19.38L21.17 13.67L24.6 11.7C24.63 11.67 24.68 11.67 24.71 11.69L32.9 16.41C36.55 18.52 37.8 23.18 35.69 26.83C34.8 28.37 33.4 29.56 31.73 30.17L31.73 20.53C31.73 20.06 31.48 19.62 31.06 19.38L31.06 19.38ZM34.47 14.25C34.41 14.22 34.3 14.15 34.23 14.11L26.13 9.43C25.72 9.19 25.21 9.19 24.8 9.43L14.91 15.14L14.91 11.19C14.91 11.15 14.93 11.11 14.96 11.08L23.15 6.36C26.79 4.26 31.46 5.51 33.56 9.16C34.45 10.7 34.77 12.5 34.47 14.25L34.47 14.25ZM13.05 21.3L9.62 19.32C9.59 19.31 9.56 19.27 9.56 19.23L9.56 9.77C9.56 5.56 12.98 2.15 17.19 2.15C18.97 2.15 20.69 2.78 22.06 3.92C22 3.95 21.89 4.01 21.82 4.05L13.72 8.73C13.31 8.97 13.05 9.41 13.05 9.88L13.05 21.3L13.05 21.3ZM14.91 17.29L19.31 14.75L23.72 17.29L23.72 22.38L19.31 24.92L14.91 22.38L14.91 17.29Z" fill="#FFFFFF" fill-opacity="1.000000" fill-rule="nonzero"/>
</svg>
