<svg width="145.000000" height="32.000000" viewBox="0 0 145 32" fill="none" xmlns="http://www.w3.org/2000/svg" xmlns:xlink="http://www.w3.org/1999/xlink">
	<desc>
			Created with Pixso.
	</desc>
	<defs/>
	<path id="Vector" d="M72.15 7.14C66.54 7.14 62.5 10.8 62.5 16.28C62.5 21.77 67.05 25.42 72.66 25.42C76.04 25.42 79.03 24.08 80.88 21.82L76.99 19.58C75.97 20.7 74.41 21.35 72.66 21.35C70.22 21.35 68.16 20.09 67.39 18.05L81.62 18.05C81.73 17.49 81.8 16.9 81.8 16.28C81.8 10.8 77.76 7.14 72.15 7.14ZM67.35 14.5C67.99 12.48 69.72 11.2 72.15 11.2C74.58 11.2 76.32 12.48 76.95 14.5L67.35 14.5ZM66.2 1.56L52.13 25.93L38.06 1.56L43.33 1.56L52.13 16.79L60.92 1.56L66.2 1.56ZM18.64 -0.98L37.4 31.52L-0.12 31.52L18.64 -0.98ZM102.21 16.28C102.21 19.33 104.2 21.36 107.29 21.36C109.38 21.36 110.95 20.41 111.76 18.86L115.66 21.11C114.04 23.8 111.02 25.42 107.29 25.42C101.68 25.42 97.64 21.77 97.64 16.28C97.64 10.8 101.68 7.14 107.29 7.14C111.02 7.14 114.04 8.76 115.66 11.45L111.76 13.7C110.95 12.15 109.38 11.2 107.29 11.2C104.21 11.2 102.21 13.24 102.21 16.28ZM144.1 1.56L144.1 24.91L139.53 24.91L139.53 1.56L144.1 1.56ZM126.83 7.14C121.22 7.14 117.18 10.8 117.18 16.28C117.18 21.77 121.73 25.42 127.34 25.42C130.73 25.42 133.71 24.08 135.56 21.82L131.67 19.58C130.65 20.7 129.09 21.35 127.34 21.35C124.91 21.35 122.84 20.09 122.07 18.05L136.3 18.05C136.41 17.49 136.48 16.9 136.48 16.28C136.48 10.8 132.44 7.14 126.83 7.14ZM122.03 14.5C122.67 12.48 124.4 11.2 126.83 11.2C129.26 11.2 131 12.48 131.63 14.5L122.03 14.5ZM96.12 7.65L96.12 12.57C95.61 12.42 95.07 12.32 94.49 12.32C91.54 12.32 89.42 14.35 89.42 17.4L89.42 24.91L84.84 24.91L84.84 7.65L89.42 7.65L89.42 12.32C89.42 9.74 92.42 7.65 96.12 7.65Z" fill="#FFFFFF" fill-opacity="1.000000" fill-rule="nonzero"/>
</svg>
