<svg width="109.000000" height="36.000000" viewBox="0 0 109 36" fill="none" xmlns="http://www.w3.org/2000/svg" xmlns:xlink="http://www.w3.org/1999/xlink">
	<desc>
			Created with Pixso.
	</desc>
	<defs/>
	<path id="Shape" d="M37.2705 27.2449C42.1914 27.2449 46.2009 23.4204 46.2009 18.2303C46.2009 13.0037 42.1914 9.21582 37.2705 9.21582C32.3499 9.21582 28.3403 13.0037 28.3403 18.2303C28.3403 23.4204 32.3499 27.2449 37.2705 27.2449ZM37.2705 12.7686C39.9678 12.7686 42.2917 14.9877 42.2917 18.231C42.2917 21.4376 39.9678 23.6932 37.2705 23.6932C34.5735 23.6932 32.2495 21.4417 32.2495 18.231C32.2495 14.9877 34.5735 12.7686 37.2705 12.7686Z" clip-rule="evenodd" fill="#FFFFFF" fill-opacity="1.000000" fill-rule="evenodd"/>
	<path id="Shape" d="M56.5361 27.2449C61.4568 27.2449 65.4666 23.4204 65.4666 18.2303C65.4666 13.0037 61.4568 9.21582 56.5361 9.21582C51.6155 9.21582 47.606 13.0077 47.606 18.2303C47.606 23.4204 51.6155 27.2449 56.5361 27.2449ZM56.5361 12.7686C59.2334 12.7686 61.5574 14.9877 61.5574 18.231C61.5574 21.4376 59.2334 23.6932 56.5361 23.6932C53.8391 23.6932 51.5151 21.4417 51.5151 18.231C51.5151 14.9877 53.8391 12.7686 56.5361 12.7686Z" clip-rule="evenodd" fill="#FFFFFF" fill-opacity="1.000000" fill-rule="evenodd"/>
	<path id="Shape" d="M83.8574 9.76416L83.8574 25.9441C83.8574 32.6013 79.9802 35.3203 75.3967 35.3203C71.082 35.3203 68.4854 32.3981 67.5059 30.0083L70.9094 28.5736C71.5154 30.0408 73.0005 31.7722 75.3928 31.7722C78.3267 31.7722 80.1448 29.9392 80.1448 26.4886L80.1448 25.1921L80.0083 25.1921C79.1333 26.2854 77.4478 27.2405 75.3206 27.2405C70.8694 27.2405 66.7915 23.3145 66.7915 18.2626C66.7915 13.1741 70.8694 9.21558 75.3206 9.21558C77.4436 9.21558 79.1294 10.1707 80.0083 11.2313L80.1448 11.2313L80.1448 9.76416L83.8574 9.76416ZM75.7417 12.7686C78.4028 12.7686 80.4939 15.0892 80.4939 18.2634C80.4939 21.405 78.4028 23.6932 75.7417 23.6932C73.0447 23.6932 70.7849 21.405 70.7849 18.2634C70.7849 15.0892 73.0447 12.7686 75.7417 12.7686Z" clip-rule="evenodd" fill="#FFFFFF" fill-opacity="1.000000" fill-rule="evenodd"/>
	<path id="Path" d="M90.05 0.26L90.05 26.67L86.23 26.67L86.23 0.26L90.05 0.26Z" fill="#FFFFFF" fill-opacity="1.000000" fill-rule="nonzero"/>
	<path id="Shape" d="M104.909 21.1849L107.944 23.2334C106.965 24.7006 104.604 27.2285 100.527 27.2285C95.4695 27.2285 91.6926 23.2699 91.6926 18.214C91.6926 12.8533 95.5015 9.19946 100.089 9.19946C104.709 9.19946 106.969 12.9224 107.707 14.9341L108.112 15.9584L96.2119 20.9492C97.123 22.7578 98.54 23.6804 100.527 23.6804C102.517 23.6804 103.898 22.6887 104.909 21.1849ZM103.524 14.597L95.5688 17.9419C95.4685 14.4629 98.2336 12.6868 100.221 12.6868C101.77 12.6868 103.086 13.4712 103.524 14.597Z" clip-rule="evenodd" fill="#FFFFFF" fill-opacity="1.000000" fill-rule="evenodd"/>
	<path id="Path" d="M13.9 15.87L13.9 12.04L26.63 12.04C26.75 12.71 26.82 13.5 26.82 14.35C26.82 17.22 26.04 20.77 23.55 23.3C21.12 25.86 18.02 27.22 13.91 27.22C6.29 27.22 -0.12 20.94 -0.12 13.23C-0.12 5.51 6.29 -0.77 13.91 -0.77C18.12 -0.77 21.12 0.9 23.38 3.09L20.71 5.78C19.1 4.25 16.91 3.05 13.9 3.05C8.34 3.05 3.99 7.59 3.99 13.23C3.99 18.86 8.34 23.4 13.9 23.4C17.51 23.4 19.57 21.93 20.88 20.6C21.95 19.52 22.65 17.97 22.93 15.86L13.9 15.87Z" fill="#FFFFFF" fill-opacity="1.000000" fill-rule="nonzero"/>
</svg>
