<svg width="129.000000" height="32.000000" viewBox="0 0 129 32" fill="none" xmlns="http://www.w3.org/2000/svg" xmlns:xlink="http://www.w3.org/1999/xlink">
	<desc>
			Created with Pixso.
	</desc>
	<defs/>
	<path id="Shape" d="M63.9819 10.5262C62.7085 10.5626 61.4956 11.0754 60.4993 11.8458C60.1433 12.0989 59.7095 12.5171 59.4746 12.8959C58.9646 13.5917 58.5317 14.3351 58.2871 15.1656C57.5801 17.4862 57.7061 20.1139 58.8369 22.2803C59.2766 23.0508 59.7485 23.7192 60.4436 24.2902C61.0083 24.6398 61.6643 25.1001 62.3635 25.281C64.2764 25.8848 66.4924 25.5745 68.0906 24.3452C68.4912 24.098 68.856 23.6226 69.1785 23.2272C69.1553 23.1233 69.4846 22.6975 69.51 23.0293C69.509 24.3396 69.5095 25.6567 69.5098 26.9745C69.5103 28.0291 69.5105 29.0841 69.51 30.1366L71.6658 30.1366L71.6658 10.8561L69.51 10.8561L69.51 13.422C69.124 12.8594 68.7827 12.2426 68.2388 11.8824C67.0483 10.9329 65.5127 10.4069 63.9819 10.5262ZM67.5559 13.4038C66.8501 12.7811 65.7268 12.5033 64.7373 12.5057C64.2905 12.4932 63.8401 12.5382 63.4141 12.6752C62.5366 12.8815 61.8201 13.4635 61.2729 14.137C60.46 15.2091 60.2056 16.5913 60.1519 17.9088C60.1333 19.4269 60.4326 21.0846 61.4817 22.2302C62.0442 22.8942 62.7891 23.3933 63.6667 23.5431C64.9917 23.7728 66.5088 23.6238 67.5559 22.7325C68.2676 22.1644 68.8105 21.4331 69.0935 20.5674C69.7231 18.7773 69.6511 16.7278 68.8457 15.0044C68.5405 14.3374 68.1194 13.8578 67.5559 13.4038Z" clip-rule="evenodd" fill="#FFFFFF" fill-opacity="1.000000" fill-rule="evenodd"/>
	<path id="Path" d="M48.14 5.03C46.5 5.09 44.83 5.52 43.51 6.53C43.24 6.71 42.95 7.03 42.76 7.31C41.96 8.32 41.55 9.63 41.67 10.92C41.72 11.85 42.07 12.76 42.7 13.46C42.89 13.74 43.25 14.06 43.54 14.24C45.24 15.55 47.45 15.79 49.45 16.39C50.7 16.77 52.15 17.03 52.97 18.13C53.66 18.98 53.64 20.24 53.26 21.23C52.94 22.04 52.23 22.62 51.47 23.03C49.89 23.71 48.06 23.66 46.43 23.21C45.19 22.83 44.1 22.1 43.3 21.09C43.1 20.76 42.91 20.55 42.59 20.93C42.11 21.27 41.62 21.61 41.14 21.95C41.53 22.55 41.99 23.14 42.54 23.56C43.48 24.27 44.5 24.91 45.66 25.2C47.82 25.85 50.23 25.78 52.32 24.91C53.17 24.48 53.98 24.03 54.57 23.3C55.35 22.39 55.84 21.11 55.87 19.87C55.93 18.67 55.54 17.46 54.75 16.56C54.6 16.32 54.33 16.08 54.07 15.93C53.68 15.58 53.23 15.36 52.75 15.1C50.59 14.03 48.14 13.8 45.93 12.86C45.26 12.53 44.58 12.07 44.23 11.39C43.71 10.23 44.12 8.77 45.14 8.03C46.04 7.32 47.27 7.11 48.41 7.1C50.38 7.08 52.38 7.94 53.58 9.52C54.17 9.08 54.75 8.64 55.34 8.2C54.83 7.48 54.18 6.93 53.47 6.45C51.91 5.43 50.01 4.93 48.14 5.03Z" fill="#FFFFFF" fill-opacity="1.000000" fill-rule="nonzero"/>
	<path id="Path" d="M75.3 20.22C75.3 21.48 75.56 22.79 76.33 23.82C76.67 24.36 77.34 24.8 77.93 25.12C79.48 25.83 81.33 25.72 82.86 25.02C83.56 24.65 84.23 24.18 84.68 23.58C84.88 23.39 85.11 22.86 85.23 22.83C85.23 23.64 85.23 24.45 85.23 25.26C85.95 25.26 86.67 25.26 87.39 25.26C87.39 20.47 87.39 15.67 87.39 10.88C86.67 10.88 85.95 10.88 85.23 10.88C85.22 13.81 85.27 16.75 85.19 19.69C85.02 20.87 84.48 22.02 83.5 22.73C82.31 23.63 80.59 23.85 79.19 23.3C78.21 22.86 77.65 21.79 77.58 20.74C77.41 18.9 77.53 17.05 77.49 15.21C77.49 13.76 77.49 12.32 77.49 10.88C76.76 10.88 76.03 10.88 75.3 10.88C75.3 13.99 75.3 17.11 75.3 20.22Z" fill="#FFFFFF" fill-opacity="1.000000" fill-rule="nonzero"/>
	<path id="Shape" d="M96.2451 10.5518C94.373 10.6122 92.5205 11.2173 90.99 12.2928C91.3115 12.8181 91.6235 13.3436 91.9355 13.869C93.2031 12.8992 94.8411 12.5026 96.4207 12.4393C97.571 12.4238 98.9263 12.6427 99.5894 13.658C99.9597 14.3469 99.8818 15.3358 99.2285 15.83C98.6924 16.3477 97.7661 16.5605 96.9861 16.7097C95.4944 16.9822 93.9246 17.0406 92.5303 17.6681C91.9065 17.9609 91.3213 18.3915 90.9607 18.9457C90.1807 19.8987 90.1318 21.2217 90.3562 22.3767C90.4927 23.0286 90.8242 23.5973 91.2336 24.114C91.4482 24.4302 91.8674 24.6417 92.228 24.9021C93.5735 25.6677 95.231 25.73 96.7327 25.4418C97.6101 25.2418 98.429 24.7914 99.0627 24.2194C99.3943 24.0051 99.4624 23.6464 99.7454 23.4359C99.9185 23.4833 99.8955 23.6781 99.8728 23.8696C99.8599 23.9801 99.8469 24.0896 99.8721 24.1691L99.8721 25.2686L101.958 25.2686C101.951 23.9114 101.955 22.5538 101.958 21.1964L101.958 21.1963C101.963 18.8207 101.969 16.4451 101.919 14.0706C101.754 13.0468 101.208 11.9883 100.301 11.4899C99.1311 10.7228 97.6392 10.4733 96.2451 10.5518ZM99.8799 18.4895C99.8716 18.1001 99.8633 17.7124 99.8782 17.3324L99.8782 17.2042C99.6443 17.4391 99.3613 17.6011 99.0496 17.7723C97.4797 18.3794 95.7539 18.3829 94.1648 18.9253C93.4919 19.1455 92.8584 19.5806 92.6536 20.2837C92.3904 21.0942 92.4976 22.097 93.0435 22.7574C93.804 23.6678 95.1204 23.8085 96.2415 23.7152C97.509 23.6173 98.7473 22.9559 99.3613 21.8359C99.9294 20.8055 99.9045 19.6396 99.8799 18.4895Z" clip-rule="evenodd" fill="#FFFFFF" fill-opacity="1.000000" fill-rule="evenodd"/>
	<path id="Path" d="M111.89 10.6C110.74 10.69 109.62 11.21 108.82 11.96C108.47 12.35 108.14 12.83 107.84 13.3C107.84 12.49 107.84 11.68 107.84 10.88C107.12 10.88 106.4 10.88 105.69 10.88C105.69 15.67 105.69 20.47 105.69 25.26C106.4 25.26 107.12 25.26 107.84 25.26C107.86 22.46 107.79 19.65 107.88 16.85C108.05 15.49 108.62 14.11 109.78 13.31C110.82 12.54 112.3 12.48 113.5 12.95C113.75 12.82 113.65 12.38 113.79 12.13C113.88 11.77 113.98 11.42 114.06 11.06C113.42 10.69 112.64 10.56 111.89 10.6Z" fill="#FFFFFF" fill-opacity="1.000000" fill-rule="nonzero"/>
	<path id="Shape" d="M121.322 10.5887C120.064 10.6102 118.845 11.0569 117.802 11.7434C117.597 11.9022 117.344 12.0851 117.119 12.2797C116.573 12.7993 116.174 13.4387 115.774 14.1075C114.711 16.2 114.584 18.7118 115.257 20.9451C115.55 21.9686 116.174 22.9183 116.837 23.6797C117.11 23.957 117.412 24.1865 117.675 24.3711C118.777 25.1598 120.113 25.585 121.458 25.6261C123.262 25.726 125.153 25.3027 126.557 24.1346C126.996 23.8372 127.366 23.4838 127.718 23.0514C127.23 22.6116 126.742 22.1716 126.265 21.7319C125.514 22.687 124.422 23.349 123.223 23.5586C121.546 23.8801 119.615 23.5272 118.455 22.217C117.49 21.2888 117.168 19.8677 117.139 18.5613C117.266 18.3558 117.513 18.385 117.762 18.4142C117.914 18.4321 118.066 18.45 118.192 18.4146L128.283 18.4146C128.527 16.4659 128.078 14.3975 126.84 12.8468C126.538 12.3877 126.06 12.0551 125.602 11.7251C124.383 10.8629 122.803 10.4982 121.322 10.5887ZM125.592 14.546C124.929 13.2727 123.535 12.4701 122.092 12.3844C121.058 12.3118 119.976 12.5022 119.099 13.0707C118.875 13.2994 118.475 13.536 118.338 13.7772C117.548 14.5399 117.295 15.674 117.158 16.7279L126.109 16.7279C126.099 15.9764 125.914 15.2246 125.592 14.546Z" clip-rule="evenodd" fill="#FFFFFF" fill-opacity="1.000000" fill-rule="evenodd"/>
	<path id="Shape" d="M25.7947 -0.0998535L4.88208 -0.0998535C2.00684 -0.0998535 -0.34668 2.24036 -0.34668 5.10083L-0.34668 25.9008C-0.34668 28.7599 2.00684 31.0996 4.88208 31.0996L25.7947 31.0996C28.6697 31.0996 31.0234 28.7599 31.0234 25.9008L31.0234 5.10083C31.0234 2.24036 28.6697 -0.0998535 25.7947 -0.0998535ZM25.3193 23.7749C25.3193 24.6837 24.5715 25.4258 23.657 25.4258L7.01978 25.4258C6.10522 25.4258 5.35645 24.6837 5.35645 23.7749L5.35645 7.22754C5.35645 6.31824 6.10522 5.57397 7.01978 5.57397L23.657 5.57397C24.5715 5.57397 25.3193 6.31824 25.3193 7.22754L25.3193 23.7749ZM18.7419 19.7546C19.2634 19.7546 19.6917 19.3304 19.6917 18.8087L19.6917 12.1913C19.6917 11.6714 19.2634 11.2463 18.7419 11.2463L12.0886 11.2463C11.5649 11.2463 11.1389 11.6714 11.1389 12.1913L11.1389 18.8087C11.1389 19.3304 11.5649 19.7546 12.0886 19.7546L18.7419 19.7546Z" clip-rule="evenodd" fill="#FFFFFF" fill-opacity="1.000000" fill-rule="evenodd"/>
</svg>
