<svg width="150.000000" height="45.000000" viewBox="0 0 150 45" fill="none" xmlns="http://www.w3.org/2000/svg" xmlns:xlink="http://www.w3.org/1999/xlink">
	<desc>
			Created with Pixso.
	</desc>
	<defs/>
	<path id="Vector" d="M43.44 33.31C47.52 33.31 50.68 30.15 50.68 25.47L50.68 7.27L55.11 7.27L55.11 36.76L50.72 36.76L50.72 34.02C48.74 36.09 46.01 37.27 42.93 37.27C36.61 37.27 31.76 32.67 31.76 25.72L31.76 7.27L36.19 7.27L36.19 25.47C36.19 30.23 39.31 33.31 43.43 33.31L43.44 33.31Z" fill="#FFFFFF" fill-opacity="1.000000" fill-rule="nonzero"/>
	<path id="Vector" d="M58.39 7.27L62.65 7.27L62.65 18.01C63.64 16.99 64.83 16.19 66.14 15.64C67.45 15.09 68.85 14.81 70.27 14.81C76.59 14.81 81.57 19.82 81.57 26.06C81.57 32.25 76.59 37.27 70.27 37.27C68.85 37.27 67.43 36.99 66.12 36.44C64.8 35.89 63.6 35.08 62.6 34.06L62.6 36.76L58.39 36.76L58.39 7.27ZM69.98 33.52C74.03 33.52 77.35 30.19 77.35 26.06C77.35 21.89 74.03 18.6 69.98 18.6C65.89 18.6 62.56 21.89 62.56 26.06C62.56 30.19 65.85 33.52 69.98 33.52Z" fill="#FFFFFF" fill-opacity="1.000000" fill-rule="nonzero"/>
	<path id="Vector" d="M94.29 14.85C100.49 14.85 105.04 19.61 105.04 26.02L105.04 27.41L87.55 27.41C88.14 30.9 91.05 33.52 94.67 33.52C97.16 33.52 99.26 32.5 100.87 30.36L103.94 32.63C101.79 35.5 98.59 37.22 94.67 37.22C88.23 37.22 83.25 32.42 83.25 26.02C83.25 19.95 88.01 14.85 94.29 14.85L94.29 14.85ZM87.63 24.04L100.74 24.04C100.02 20.75 97.37 18.56 94.21 18.56C91.05 18.56 88.39 20.75 87.63 24.04Z" fill="#FFFFFF" fill-opacity="1.000000" fill-rule="nonzero"/>
	<path id="Vector" d="M116.45 19.06C113.67 19.06 111.65 21.21 111.65 24.54L111.65 36.76L107.4 36.76L107.4 15.27L111.61 15.27L111.61 17.93C112.66 16.2 114.39 15.11 116.75 15.11L118.23 15.11L118.23 19.07L116.45 19.06Z" fill="#FFFFFF" fill-opacity="1.000000" fill-rule="nonzero"/>
</svg>
