<svg width="99.000000" height="30.000000" viewBox="0 0 99 30" fill="none" xmlns="http://www.w3.org/2000/svg" xmlns:xlink="http://www.w3.org/1999/xlink">
	<desc>
			Created with Pixso.
	</desc>
	<defs/>
	<path id="visa-logo" d="M24.938 27.625L38.2837 -0.5L29.3406 -0.5L20.7761 18.625L17.3364 2.35815C17.032 0.7052 15.4131 -0.506836 13.5186 -0.5L-0.480713 -0.5L-0.687012 0.320923C2.12085 0.806641 4.84814 1.60339 7.43042 2.69263C8.53027 3.14966 9.27563 4.08594 9.39111 5.1554L15.9607 27.625L24.938 27.625ZM47.9763 -0.5L41.7764 27.625L34.3367 27.625L40.5364 -0.5L47.9763 -0.5ZM98.6379 27.625L91.5383 27.625L90.6108 23.4291L80.9846 23.4291L79.4177 27.625L71.3584 27.625L82.8396 1.5675C83.3689 0.327759 84.6304 -0.487793 86.0376 -0.5L92.4336 -0.5L98.6379 27.625ZM69.9646 19.7936C69.9844 14.9889 65.9062 12.9136 62.7415 11.3031C60.7378 10.2836 59.1003 9.45032 59.1003 8.22876C59.1003 7.18884 60.1382 6.08594 62.3435 5.80237C64.968 5.55005 67.6138 5.9967 69.9971 7.09436L71.3591 0.791992C69.0359 -0.0545654 66.5759 -0.492065 64.0947 -0.5C56.4412 -0.5 51.1226 3.47046 51.1226 9.14258C51.1226 13.3337 54.9817 15.6655 57.9004 17.0521C60.8191 18.4386 61.9543 19.4155 61.9219 20.6759C61.9219 22.6296 59.522 23.512 57.2842 23.5436C54.5239 23.5781 51.8003 22.9272 49.3713 21.6528L47.9768 27.9552C50.7251 28.9978 53.6528 29.5217 56.6033 29.4993C64.7432 29.4993 70.0942 25.5918 70.1267 19.5415L69.9646 19.7936ZM83.0496 18.2501L87.9846 7.00012L90.8438 18.2501L83.0496 18.2501Z" clip-rule="evenodd" fill="#FFFFFF" fill-opacity="1.000000" fill-rule="evenodd"/>
</svg>
