<svg width="36.000000" height="44.000000" viewBox="0 0 36 44" fill="none" xmlns="http://www.w3.org/2000/svg" xmlns:xlink="http://www.w3.org/1999/xlink">
	<desc>
			Created with Pixso.
	</desc>
	<defs/>
	<path id="apple" d="M26.8091 -0.855957C27.0938 1.73804 26.0525 4.34509 24.5051 6.21777C22.958 8.0918 20.4189 9.54724 17.9329 9.35486C17.5945 6.81226 18.8494 4.1593 20.2834 2.50183C21.8826 0.630127 24.5793 -0.766357 26.8091 -0.855957ZM30.0366 22.6564C30.0981 29.2371 35.7053 31.5082 35.9734 31.6167C35.9792 31.6188 35.9822 31.6201 35.9832 31.6206C35.9812 31.6256 35.9792 31.6337 35.9753 31.6445C35.876 31.9722 34.9849 34.9004 32.9167 37.9219C31.0703 40.6207 29.1543 43.3097 26.1348 43.3654C24.686 43.3921 23.7168 42.9729 22.7097 42.5372C21.6548 42.0808 20.5579 41.6062 18.8235 41.6062C17.0071 41.6062 15.8594 42.0948 14.7539 42.5657C13.7954 42.974 12.8682 43.3688 11.5647 43.42C8.65039 43.5304 6.4314 40.5016 4.56909 37.8125C0.764893 32.3121 -2.14258 22.2695 1.76123 15.4907C3.70044 12.1244 7.1665 9.99255 10.929 9.93787C12.5513 9.90698 14.1221 10.53 15.4968 11.0754C16.5469 11.4919 17.4829 11.863 18.2405 11.863C18.9199 11.863 19.8296 11.5042 20.8914 11.0853L20.8921 11.0851C22.564 10.4255 24.6111 9.61804 26.7217 9.83191C28.1667 9.89209 32.2217 10.4154 34.825 14.2266C34.821 14.2292 34.8142 14.233 34.8064 14.2379C34.425 14.4695 29.988 17.1672 30.0366 22.6564Z" clip-rule="evenodd" fill="#FFFFFF" fill-opacity="1.000000" fill-rule="evenodd"/>
</svg>
