<svg width="36.000000" height="35.000000" viewBox="0 0 36 35" fill="none" xmlns="http://www.w3.org/2000/svg" xmlns:xlink="http://www.w3.org/1999/xlink">
	<desc>
			Created with Pixso.
	</desc>
	<defs>
		<clipPath id="clip1_3339">
			<rect id="Location Map" width="18.000000" height="18.000000" transform="translate(8.875000 7.894531)" fill="white" fill-opacity="0"/>
		</clipPath>
	</defs>
	<g clip-path="url(#clip1_3339)">
		<path id="Vector" d="M21.62 17.64L23.87 17.64L25.37 24.39L19.29 24.39L16.45 24.39L10.37 24.39L11.87 17.64L14.12 " stroke="#000000" stroke-opacity="1.000000" stroke-width="1.125000" stroke-linejoin="round" stroke-linecap="round"/>
		<path id="Vector" d="M14.88 12.19C15.03 14.01 15.85 15.87 16.62 17.51C16.99 18.32 17.4 19.12 17.87 19.88C18.34 19.12 18.75 18.32 19.12 17.51C19.89 15.87 20.71 14 20.86 12.19C21.01 10.43 19.55 9.39 17.87 9.39C16.19 9.39 14.74 10.43 14.88 12.19Z" stroke="#000000" stroke-opacity="1.000000" stroke-width="1.125000" stroke-linejoin="round"/>
		<path id="Vector" d="M17.87 12.39C17.66 12.39 17.5 12.22 17.5 12.01C17.5 11.81 17.66 11.64 17.87 11.64C18.08 11.64 18.25 11.81 18.25 12.01C18.25 12.22 18.08 12.39 17.87 12.39Z" stroke="#000000" stroke-opacity="1.000000" stroke-width="1.125000" stroke-linejoin="round"/>
	</g>
</svg>
