<svg width="141.000000" height="142.000000" viewBox="0 0 141 142" fill="none" xmlns="http://www.w3.org/2000/svg" xmlns:xlink="http://www.w3.org/1999/xlink">
	<desc>
			Created with Pixso.
	</desc>
	<defs>
		<filter id="filter_1_3421_dd" x="2.071533" y="2.169189" width="135.905273" height="135.913025" filterUnits="userSpaceOnUse" color-interpolation-filters="sRGB">
			<feFlood flood-opacity="0" result="BackgroundImageFix"/>
			<feBlend mode="normal" in="SourceGraphic" in2="BackgroundImageFix" result="shape"/>
			<feGaussianBlur stdDeviation="3.33333" result="effect_layerBlur_1"/>
		</filter>
		<radialGradient id="paint_angular_1_3421_0" cx="0.000000" cy="0.000000" r="1.000000" gradientUnits="userSpaceOnUse" gradientTransform="translate(70.0222 70.1222) rotate(60) scale(56.7085 56.7085)">
			<stop offset="0.392191" stop-color="#FFFFFF" stop-opacity="0.000000"/>
			<stop offset="0.772423" stop-color="#FFFFFF"/>
			<stop offset="0.808184" stop-color="#FFFFFF" stop-opacity="0.000000"/>
		</radialGradient>
		<linearGradient id="paint_linear_1_3422_0" x1="109.535645" y1="12.169189" x2="12.069199" y2="128.075241" gradientUnits="userSpaceOnUse">
			<stop stop-color="#FFFFFF"/>
			<stop offset="0.750000" stop-color="#285299"/>
		</linearGradient>
		<linearGradient id="paint_linear_1_3422_1" x1="70.022232" y1="6.736094" x2="70.022232" y2="128.075226" gradientUnits="userSpaceOnUse">
			<stop stop-color="#2737CF" stop-opacity="0.000000"/>
			<stop offset="1.000000" stop-color="#BDFCFE"/>
		</linearGradient>
	</defs>
	<path id="Ellipse 16" d="M107.26 25.73C97.18 17.27 84.19 12.16 70.02 12.16C56.86 12.17 43.62 16.61 32.77 25.73C22.69 34.19 15.41 46.1 12.96 60.06C10.66 73.02 12.74 86.82 19.84 99.09C26.41 110.49 36.88 119.73 50.2 124.56C62.57 129.07 76.52 129.42 89.83 124.56C102.2 120.07 113.12 111.37 120.2 99.09C126.78 87.69 129.55 74.01 127.08 60.06C124.8 47.09 118.13 34.83 107.26 25.73ZM34.64 27.95C44.21 19.91 56.55 15.06 70.02 15.06C82.52 15.07 95.09 19.29 105.4 27.95C114.98 35.98 121.9 47.3 124.22 60.56C126.4 72.87 124.43 85.98 117.69 97.64C111.44 108.47 101.5 117.25 88.84 121.84C77.1 126.12 63.84 126.46 51.19 121.84C39.44 117.57 29.07 109.31 22.35 97.64C16.09 86.81 13.46 73.82 15.81 60.56C17.97 48.24 24.31 36.6 34.64 27.95Z" fill="#FFFFFF" fill-opacity="0.100000" fill-rule="evenodd"/>
	<g filter="url(#filter_1_3421_dd)">
		<path id="Ellipse 17" d="M107.26 25.73C97.18 17.27 84.19 12.16 70.02 12.16C56.86 12.17 43.62 16.61 32.77 25.73C22.69 34.19 15.41 46.1 12.96 60.06C10.66 73.02 12.74 86.82 19.84 99.09C26.41 110.49 36.88 119.73 50.2 124.56C62.57 129.07 76.52 129.42 89.83 124.56C102.2 120.07 113.12 111.37 120.2 99.09C126.78 87.69 129.55 74.01 127.08 60.06C124.8 47.09 118.13 34.83 107.26 25.73ZM34.64 27.95C44.21 19.91 56.55 15.06 70.02 15.06C82.52 15.07 95.09 19.29 105.4 27.95C114.98 35.98 121.9 47.3 124.22 60.56C126.4 72.87 124.43 85.98 117.69 97.64C111.44 108.47 101.5 117.25 88.84 121.84C77.1 126.12 63.84 126.46 51.19 121.84C39.44 117.57 29.07 109.31 22.35 97.64C16.09 86.81 13.46 73.82 15.81 60.56C17.97 48.24 24.31 36.6 34.64 27.95Z" fill="url(#paint_angular_1_3421_0)" fill-opacity="1.000000" fill-rule="evenodd"/>
	</g>
	<path id="Ellipse 15" d="M70.6 12.17C82.96 12.29 94.4 16.29 103.76 23.01C113.99 30.33 121.12 40.38 124.88 51.46C128.94 63.37 128.88 75.7 125.48 86.9C121.91 98.74 114.86 108.6 105.8 115.7C105.55 115.9 105.19 115.85 104.99 115.6C104.8 115.34 104.84 114.98 105.1 114.78C114.62 107.31 121.11 97.37 124.37 86.56C127.95 74.76 127.48 62.69 123.78 51.83C119.82 40.16 112.41 30.62 103.08 23.95C93.23 16.89 81.87 13.44 70.6 13.33C70.28 13.32 70.02 13.06 70.02 12.74C70.02 12.42 70.28 12.16 70.6 12.17Z" fill="url(#paint_linear_1_3422_0)" fill-opacity="1.000000" fill-rule="evenodd"/>
	<path id="Ellipse 15" d="M103.76 23.01C113.99 30.33 121.12 40.38 124.88 51.46C128.94 63.37 128.88 75.7 125.48 86.9C121.91 98.74 114.86 108.6 105.8 115.7C105.55 115.9 105.19 115.85 104.99 115.6C104.8 115.34 104.84 114.98 105.1 114.78C114.62 107.31 121.11 97.37 124.37 86.56C127.95 74.76 127.48 62.69 123.78 51.83C119.82 40.16 112.41 30.62 103.08 23.95C93.23 16.89 81.87 13.44 70.6 13.33C70.28 13.32 70.02 13.06 70.02 12.74C70.02 12.42 70.28 12.16 70.6 12.17C82.96 12.29 94.4 16.29 103.76 23.01Z" stroke="#FFFFFF" stroke-opacity="0.100000" stroke-width="1.000000"/>
	<path id="Ellipse 15" d="M103.76 23.01C113.99 30.33 121.12 40.38 124.88 51.46C128.94 63.37 128.88 75.7 125.48 86.9C121.91 98.74 114.86 108.6 105.8 115.7C105.55 115.9 105.19 115.85 104.99 115.6C104.8 115.34 104.84 114.98 105.1 114.78C114.62 107.31 121.11 97.37 124.37 86.56C127.95 74.76 127.48 62.69 123.78 51.83C119.82 40.16 112.41 30.62 103.08 23.95C93.23 16.89 81.87 13.44 70.6 13.33C70.28 13.32 70.02 13.06 70.02 12.74C70.02 12.42 70.28 12.16 70.6 12.17C82.96 12.29 94.4 16.29 103.76 23.01Z" stroke="url(#paint_linear_1_3422_1)" stroke-opacity="1.000000" stroke-width="1.000000"/>
</svg>
