<svg width="87.000000" height="24.000000" viewBox="0 0 87 24" fill="none" xmlns="http://www.w3.org/2000/svg" xmlns:xlink="http://www.w3.org/1999/xlink">
	<desc>
			Created with Pixso.
	</desc>
	<defs>
		<clipPath id="clip13_4179">
			<rect id="Plane 4" rx="-0.375000" width="17.250000" height="17.250000" transform="translate(2.875000 3.019531)" fill="white" fill-opacity="0"/>
		</clipPath>
	</defs>
	<g clip-path="url(#clip13_4179)">
		<path id="Vector 68" d="M6 18.64L6 " stroke="#000000" stroke-opacity="1.000000" stroke-width="1.500000"/>
		<path id="Vector 71" d="M8 17.19L8 " stroke="#000000" stroke-opacity="1.000000" stroke-width="1.500000"/>
		<path id="Vector 69" d="M23 18.64L23 " stroke="#000000" stroke-opacity="1.000000" stroke-width="1.500000"/>
		<path id="Vector 70" d="M21 17.19L21 " stroke="#000000" stroke-opacity="1.000000" stroke-width="1.500000"/>
		<circle id="Ellipse 53" cx="8.000000" cy="19.144531" r="0.500000" stroke="#000000" stroke-opacity="1.000000" stroke-width="1.500000"/>
		<circle id="Ellipse 56" r="0.500000" transform="matrix(-1 1 0 0 21 19.1445)" stroke="#000000" stroke-opacity="1.000000" stroke-width="1.500000"/>
		<circle id="Ellipse 55" cx="6.000000" cy="19.144531" r="0.500000" stroke="#000000" stroke-opacity="1.000000" stroke-width="1.500000"/>
		<circle id="Ellipse 57" r="0.500000" transform="matrix(-1 1 0 0 23 19.1445)" stroke="#000000" stroke-opacity="1.000000" stroke-width="1.500000"/>
		<path id="Path" d="M14.5 14.64C13.62 14.64 12.48 15.31 11.89 16.64L17.1 16.64C16.51 15.31 15.37 14.64 14.5 14.64Z" stroke="#000000" stroke-opacity="1.000000" stroke-width="1.500000" stroke-linejoin="round"/>
		<path id="Path" d="M14.5 10.64L14.5 " stroke="#000000" stroke-opacity="1.000000" stroke-width="1.500000" stroke-linecap="round"/>
		<path id="Path" d="M14.5 22.64C11.73 22.64 9.5 20.4 9.5 17.64C9.5 14.88 11.73 10.64 14.5 10.64C17.26 10.64 19.5 14.88 19.5 17.64C19.5 20.4 17.26 22.64 14.5 22.64Z" stroke="#000000" stroke-opacity="1.000000" stroke-width="1.500000"/>
		<path id="Path" d="M24.08 16.71C24.32 16.67 24.5 16.46 24.5 16.22C24.5 15.92 24.22 15.69 23.92 15.74L19.38 16.49C19.45 16.83 19.48 17.16 19.49 17.47L24.08 16.71Z" stroke="#000000" stroke-opacity="1.000000" stroke-width="1.500000"/>
		<path id="Path" d="M9.5 17.47L4.91 16.71C4.67 16.67 4.5 16.46 4.5 16.22C4.5 15.92 4.77 15.69 5.07 15.74L9.61 16.49C9.54 16.83 9.51 17.16 9.5 17.47Z" stroke="#000000" stroke-opacity="1.000000" stroke-width="1.500000"/>
	</g>
	<path id="Company" d="M31.67 9.65L29.67 9.65C29.6 8.87 28.99 8.42 28 8.42C26.98 8.42 26.42 8.89 26.42 9.52C26.41 10.23 27.12 10.54 27.97 10.74L28.85 10.95C30.56 11.33 31.79 12.2 31.8 13.83C31.79 15.63 30.38 16.78 27.99 16.78C25.6 16.78 24.09 15.68 24.03 13.56L26.04 13.56C26.11 14.54 26.88 15.04 27.96 15.04C29.02 15.04 29.7 14.55 29.7 13.83C29.7 13.17 29.1 12.86 28.03 12.6L26.97 12.34C25.31 11.94 24.29 11.11 24.29 9.66C24.28 7.88 25.86 6.69 28.01 6.69C30.2 6.69 31.64 7.9 31.67 9.65ZM34.52 16.64L32.47 16.64L32.47 6.82L34.52 6.82L34.52 12.07L34.63 12.07L36.99 9.28L41.33 9.28L42.86 14.69L42.93 14.69L44.47 9.28L46.63 9.28L43.77 17.43C43.35 18.62 42.55 19.4 41.03 19.4C40.51 19.4 40.04 19.32 39.74 19.19L40.21 17.66C40.92 17.89 41.43 17.85 41.71 17.16L41.82 16.85L39.23 9.4L36.6 12.46L39.47 16.64L37.08 16.64L35.07 13.67L34.52 14.3L34.52 16.64ZM49.99 9.18C51.85 9.18 52.95 10.02 53.13 11.38L51.26 11.49C51.16 11.02 50.74 10.63 50.03 10.63C49.4 10.63 48.9 10.91 48.9 11.36C48.9 11.71 49.15 11.95 49.84 12.09L51.17 12.36C52.6 12.65 53.29 13.29 53.3 14.36C53.29 15.81 51.93 16.78 50.02 16.78C48.07 16.78 46.87 15.91 46.68 14.51L48.69 14.4C48.81 15 49.3 15.31 50.02 15.31C50.74 15.31 51.21 15 51.22 14.56C51.21 14.19 50.92 13.96 50.28 13.83L49 13.58C47.56 13.29 46.87 12.58 46.87 11.47C46.87 10.05 48.11 9.18 49.99 9.18ZM60.53 13.94C60.43 15.63 59.2 16.78 57.24 16.78C54.97 16.78 53.61 15.23 53.61 12.99C53.61 10.73 55 9.18 57.23 9.18C59.15 9.18 60.44 10.3 60.53 12L58.6 12C58.49 11.26 58.01 10.77 57.26 10.77C56.31 10.77 55.69 11.57 55.69 12.96C55.69 14.37 56.31 15.17 57.26 15.17C57.96 15.17 58.48 14.73 58.6 13.94L60.53 13.94ZM65.42 15.62C65.06 16.3 64.36 16.78 63.27 16.78C61.86 16.78 60.82 16.04 60.82 14.58C60.82 12.94 62.13 12.45 63.59 12.32C64.87 12.19 65.37 12.13 65.37 11.65L65.37 11.63C65.37 11.02 64.97 10.67 64.28 10.67C63.55 10.67 63.11 11.03 62.97 11.52L61.08 11.37C61.36 10.02 62.52 9.18 64.29 9.18C65.93 9.18 67.41 9.92 67.41 11.67L67.41 16.64L65.48 16.64L65.48 15.62L65.42 15.62ZM70.37 19.4L68.32 19.4L68.32 9.28L70.34 9.28L70.34 10.51L70.43 10.51C70.7 9.91 71.29 9.18 72.52 9.18C74.14 9.18 75.51 10.44 75.51 12.97C75.51 15.43 74.2 16.76 72.52 16.76C71.33 16.76 70.71 16.07 70.43 15.46L70.37 15.46L70.37 19.4ZM82.88 14.53C82.59 15.9 81.37 16.78 79.54 16.78C77.27 16.78 75.89 15.32 75.89 12.99C75.89 10.72 77.29 9.18 79.46 9.18C81.41 9.18 82.92 10.42 82.92 12.92L82.92 13.48L77.91 13.48L77.91 13.49C77.91 14.58 78.56 15.26 79.58 15.26C80.26 15.26 80.79 14.97 80.99 14.4L82.88 14.53ZM79.5 10.7C78.59 10.7 77.95 11.38 77.91 12.21L81 12.21C81 11.34 80.38 10.7 79.5 10.7ZM71.87 10.81C70.88 10.81 70.32 11.64 70.32 12.96C70.32 14.27 70.89 15.13 71.87 15.13C72.88 15.13 73.42 14.24 73.42 12.96C73.42 11.68 72.89 10.81 71.87 10.81ZM62.77 14.52C62.77 15.08 63.22 15.37 63.85 15.37C64.75 15.37 65.38 14.78 65.38 14.01L65.38 13.23C65.14 13.39 64.41 13.5 63.97 13.56C63.25 13.66 62.77 13.94 62.77 14.52Z" fill="#000000" fill-opacity="1.000000" fill-rule="evenodd"/>
</svg>
