<svg width="234.000000" height="48.000000" viewBox="0 0 234 48" fill="none" xmlns="http://www.w3.org/2000/svg" xmlns:xlink="http://www.w3.org/1999/xlink">
	<desc>
			Created with Pixso.
	</desc>
	<defs>
		<filter id="filter_25_5044_dd" x="119.423096" y="25.567566" width="21.807617" height="21.807739" filterUnits="userSpaceOnUse" color-interpolation-filters="sRGB">
			<feFlood flood-opacity="0" result="BackgroundImageFix"/>
			<feColorMatrix in="SourceAlpha" type="matrix" values="0 0 0 0 0 0 0 0 0 0 0 0 0 0 0 0 0 0 127 0" result="hardAlpha"/>
			<feOffset dx="2.07692" dy="2.07692"/>
			<feGaussianBlur stdDeviation="1.38462"/>
			<feComposite in2="hardAlpha" operator="out" k2="-1" k3="1"/>
			<feColorMatrix type="matrix" values="0 0 0 0 0 0 0 0 0 0 0 0 0 0 0 0 0 0 0.2 0"/>
			<feBlend mode="normal" in2="BackgroundImageFix" result="effect_dropShadow_1"/>
			<feBlend mode="normal" in="SourceGraphic" in2="effect_dropShadow_1" result="shape"/>
		</filter>
		<linearGradient id="paint_linear_25_5043_0" x1="66.750000" y1="32.144531" x2="66.750000" y2="36.644531" gradientUnits="userSpaceOnUse">
			<stop stop-color="#4C89FF"/>
			<stop offset="1.000000" stop-color="#3F7AEC"/>
		</linearGradient>
		<linearGradient id="paint_linear_25_5044_0" x1="123.576927" y1="30.759914" x2="135.000000" y2="43.221455" gradientUnits="userSpaceOnUse">
			<stop stop-color="#4C89FF"/>
			<stop offset="1.000000" stop-color="#376ACD"/>
		</linearGradient>
		<linearGradient id="paint_linear_25_5044_1" x1="123.556038" y1="29.933325" x2="131.547424" y2="40.562637" gradientUnits="userSpaceOnUse">
			<stop stop-color="#FFFFFF" stop-opacity="0.101961"/>
			<stop offset="1.000000" stop-color="#000000" stop-opacity="0.301961"/>
		</linearGradient>
	</defs>
	<path id="Up to CA$6000" d="M64.82 23.66L64.01 23.66L64.01 22.55C61.96 22.42 60.7 21.31 60.6 19.58L62.14 19.58C62.23 20.56 63.01 21.09 64.01 21.19L64.01 17.81L63.53 17.68C61.89 17.24 60.88 16.41 60.88 14.99C60.88 13.38 62.21 12.26 64.01 12.09L64.01 10.94L64.82 10.94L64.82 12.08C66.71 12.2 68 13.34 68.04 14.88L66.56 14.88C66.46 14.05 65.79 13.52 64.82 13.42L64.82 16.6L65.25 16.71C66.55 17.03 68.18 17.74 68.18 19.58C68.18 21.2 66.96 22.41 64.82 22.54L64.82 23.66ZM45.31 12.07C47.46 12.07 49.17 13.34 49.51 15.52L47.96 15.52C47.71 14.2 46.62 13.47 45.32 13.47C43.57 13.47 42.25 14.83 42.25 17.3C42.25 19.79 43.57 21.13 45.32 21.13C46.61 21.13 47.7 20.41 47.96 19.11L49.51 19.11C49.18 21.13 47.54 22.53 45.31 22.53C42.66 22.53 40.73 20.55 40.73 17.3C40.73 14.04 42.67 12.07 45.31 12.07ZM76.97 19.06C76.97 21.02 75.56 22.55 73.43 22.53C71.62 22.51 69.71 21.39 69.72 17.64C69.72 14.1 71.19 12.07 73.56 12.07C75.38 12.07 76.65 13.24 76.88 14.85L75.36 14.85C75.15 14.01 74.54 13.41 73.56 13.41C72.07 13.41 71.19 14.78 71.19 17.1L71.26 17.1C71.78 16.23 72.71 15.72 73.79 15.72C75.55 15.72 76.97 17.12 76.97 19.06ZM86.05 17.3C86.05 20.64 84.67 22.56 82.32 22.56C79.96 22.55 78.58 20.64 78.58 17.3C78.59 13.99 79.98 12.07 82.32 12.07C84.65 12.07 86.05 13.99 86.05 17.3ZM95.09 17.3C95.09 20.64 93.72 22.56 91.36 22.56C89.01 22.55 87.63 20.64 87.63 17.3C87.64 13.99 89.03 12.07 91.36 12.07C93.7 12.07 95.09 13.99 95.09 17.3ZM104.14 17.3C104.14 20.64 102.76 22.56 100.41 22.56C98.05 22.55 96.67 20.64 96.67 17.3C96.68 13.99 98.07 12.07 100.41 12.07C102.74 12.07 104.14 13.99 104.14 17.3ZM7.66 18.78L7.66 12.21L9.2 12.21L9.2 18.9C9.2 21.04 7.6 22.56 5.16 22.56C2.72 22.56 1.11 21.04 1.11 18.9L1.11 12.21L2.65 12.21L2.65 18.78C2.65 20.16 3.61 21.16 5.16 21.16C6.71 21.16 7.66 20.16 7.66 18.78ZM53.08 19.7L52.15 22.39L50.52 22.39L54.18 12.21L55.95 12.21L59.62 22.39L57.99 22.39L57.06 19.7L53.08 19.7ZM25.67 14.75L27.23 14.75L27.23 15.95L25.67 15.95L25.67 20.15C25.67 21.01 26.1 21.17 26.58 21.17C26.82 21.17 27 21.12 27.1 21.1L27.37 22.33C27.2 22.39 26.88 22.49 26.41 22.49C25.24 22.51 24.18 21.84 24.18 20.45L24.18 15.95L23.06 15.95L23.06 14.75L24.18 14.75L24.18 12.93L25.67 12.93L25.67 14.75ZM80.11 17.3C80.11 19.85 80.94 21.23 82.32 21.23C83.69 21.23 84.52 19.85 84.52 17.3C84.52 14.77 83.69 13.37 82.32 13.37C80.95 13.37 80.12 14.77 80.11 17.3ZM89.16 17.3C89.16 19.85 89.99 21.23 91.36 21.23C92.73 21.23 93.57 19.85 93.57 17.3C93.57 14.77 92.73 13.37 91.36 13.37C89.99 13.37 89.16 14.77 89.16 17.3ZM98.2 17.3C98.2 19.85 99.03 21.23 100.41 21.23C101.78 21.23 102.61 19.85 102.61 17.3C102.61 14.77 101.78 13.37 100.41 13.37C99.03 13.37 98.2 14.77 98.2 17.3ZM62.41 14.9C62.4 15.78 63.26 16.17 64.01 16.38L64.01 13.42C63.02 13.56 62.41 14.14 62.41 14.9ZM55.03 14.06L53.53 18.4L56.61 18.4L55.11 14.06L55.03 14.06ZM12.81 25.25L11.32 25.25L11.32 14.75L12.77 14.75L12.77 15.99L12.89 15.99C13.16 15.52 13.67 14.65 15.09 14.65C16.93 14.65 18.3 16.11 18.3 18.59C18.3 21.06 16.95 22.54 15.1 22.54C13.71 22.54 13.16 21.69 12.89 21.2L12.81 21.2L12.81 25.25ZM35.57 18.61C35.57 20.97 34.16 22.54 32.01 22.54C29.86 22.54 28.45 20.97 28.45 18.61C28.45 16.23 29.86 14.65 32.01 14.65C34.16 14.65 35.57 16.23 35.57 18.61ZM29.95 18.6C29.95 20.07 30.61 21.3 32.02 21.3C33.42 21.3 34.07 20.07 34.07 18.6C34.07 17.14 33.42 15.9 32.02 15.9C30.61 15.9 29.95 17.14 29.95 18.6ZM14.77 15.92C13.47 15.92 12.78 16.98 12.78 18.57C12.78 20.18 13.49 21.27 14.77 21.27C16.1 21.27 16.79 20.1 16.79 18.57C16.79 17.05 16.12 15.92 14.77 15.92ZM71.38 19.1C71.38 20.24 72.24 21.24 73.43 21.24C74.59 21.24 75.48 20.29 75.47 19.08C75.48 17.91 74.62 16.97 73.46 16.97C72.29 16.97 71.38 17.96 71.38 19.1ZM64.82 18.04L64.82 21.19C65.91 21.06 66.66 20.44 66.66 19.56C66.66 18.68 65.87 18.32 64.82 18.04Z" fill="#000000" fill-opacity="1.000000" fill-rule="evenodd"/>
	<path id="Clear" d="M203.37 12.07C205.52 12.07 207.22 13.34 207.57 15.52L206.02 15.52C205.76 14.2 204.68 13.47 203.38 13.47C201.63 13.47 200.31 14.83 200.31 17.3C200.31 19.79 201.63 21.13 203.38 21.13C204.66 21.13 205.76 20.41 206.02 19.11L207.57 19.11C207.24 21.13 205.6 22.53 203.37 22.53C200.72 22.53 198.79 20.55 198.79 17.3C198.79 14.04 200.73 12.07 203.37 12.07ZM209.29 12.21L210.78 12.21L210.78 22.39L209.29 22.39L209.29 12.21ZM230.45 22.39L228.97 22.39L228.97 14.75L230.41 14.75L230.41 15.97L230.48 15.97C230.76 15.15 231.53 14.64 232.42 14.64C232.61 14.64 232.9 14.65 233.06 14.68L233.06 16.1C232.94 16.06 232.59 16 232.28 16C231.23 16 230.45 16.73 230.45 17.73L230.45 22.39ZM219.25 20.48C218.91 21.72 217.73 22.54 216.07 22.54C213.81 22.54 212.43 20.99 212.43 18.62C212.43 16.27 213.83 14.65 215.96 14.65C217.69 14.65 219.34 15.73 219.34 18.49L219.34 19.02L213.91 19.02C213.95 20.49 214.81 21.32 216.08 21.32C216.93 21.32 217.57 20.95 217.84 20.23L219.25 20.48ZM225.48 21.35C225.2 21.92 224.48 22.56 223.22 22.56C221.77 22.56 220.64 21.73 220.64 20.23C220.64 18.5 222.12 18.12 223.57 17.95C224.94 17.79 225.5 17.8 225.5 17.26L225.5 17.23C225.5 16.36 225.01 15.86 224.05 15.86C223.05 15.86 222.49 16.38 222.27 16.92L220.87 16.6C221.37 15.21 222.65 14.65 224.03 14.65C225.24 14.65 226.99 15.1 226.99 17.32L226.99 22.39L225.54 22.39L225.54 21.35L225.48 21.35ZM215.97 15.88C214.76 15.88 213.98 16.82 213.92 17.91L217.89 17.91C217.88 16.74 217.13 15.88 215.97 15.88ZM222.1 20.25C222.1 20.99 222.7 21.36 223.54 21.36C224.78 21.36 225.5 20.54 225.5 19.63L225.5 18.65C225.29 18.87 224.15 19 223.66 19.06C222.8 19.17 222.1 19.46 222.1 20.25Z" fill="#000000" fill-opacity="1.000000" fill-rule="evenodd"/>
	<rect id="Progress Bar" rx="4.312500" width="224.625000" height="8.625000" transform="translate(0.187500 30.082031)" fill="#000000" fill-opacity="0.200000"/>
	<rect id="Rectangle 106" x="2.250000" y="32.144531" rx="2.250000" width="129.000000" height="4.500000" fill="url(#paint_linear_25_5043_0)" fill-opacity="1.000000"/>
	<g filter="url(#filter_25_5044_dd)">
		<rect id="Rectangle 30" x="121.500000" y="27.644531" rx="6.750000" width="13.500000" height="13.500000" fill="url(#paint_linear_25_5044_0)" fill-opacity="1.000000"/>
	</g>
	<rect id="Rectangle 30" x="121.687500" y="27.832031" rx="6.562500" width="13.125000" height="13.125000" stroke="url(#paint_linear_25_5044_1)" stroke-opacity="1.000000" stroke-width="0.375000" style=""/>
	<rect id="Progress Bar" rx="4.312500" width="224.625000" height="8.625000" transform="translate(0.187500 30.082031)" stroke="#FFFFFF" stroke-opacity="0.200000" stroke-width="0.375000"/>
	<path id="Rectangle 107" d="M96.75 9.64C96.75 4.25 101.11 -0.11 106.5 -0.11L149.25 -0.11C154.63 -0.11 159 4.25 159 9.64L159 9.64C159 15.02 154.63 19.39 149.25 19.39L134.43 19.39C133.56 19.39 132.73 19.77 132.16 20.43L128.44 24.73C128.14 25.08 127.6 25.08 127.3 24.73L123.58 20.43C123.01 19.77 122.18 19.39 121.31 19.39L106.5 19.39C101.11 19.39 96.75 15.02 96.75 9.64L96.75 9.64Z" fill="#4C89FF" fill-opacity="1.000000" fill-rule="nonzero"/>
	<path id="CA$ 6000" d="M127.08 15.98L126.38 15.98L126.38 15.03C124.62 14.92 123.54 13.96 123.46 12.48L124.78 12.48C124.85 13.32 125.52 13.77 126.38 13.86L126.38 10.96L125.97 10.86C124.56 10.47 123.69 9.76 123.69 8.55C123.69 7.16 124.83 6.21 126.38 6.06L126.38 5.07L127.08 5.07L127.08 6.05C128.69 6.16 129.8 7.13 129.83 8.46L128.57 8.46C128.48 7.74 127.91 7.29 127.08 7.2L127.08 9.93L127.44 10.02C128.55 10.3 129.95 10.91 129.95 12.48C129.95 13.87 128.91 14.91 127.08 15.02L127.08 15.98ZM110.35 6.04C112.19 6.04 113.66 7.13 113.95 9L112.62 9C112.4 7.87 111.47 7.25 110.36 7.25C108.86 7.25 107.73 8.41 107.73 10.53C107.73 12.66 108.86 13.81 110.36 13.81C111.46 13.81 112.4 13.19 112.62 12.08L113.95 12.08C113.67 13.81 112.26 15.01 110.35 15.01C108.08 15.01 106.42 13.32 106.42 10.53C106.42 7.74 108.09 6.04 110.35 6.04ZM140.66 12.04C140.67 13.71 139.46 15.03 137.63 15.01C136.08 15 134.45 14.03 134.45 10.82C134.45 7.79 135.72 6.04 137.74 6.04C139.3 6.04 140.39 7.05 140.59 8.43L139.29 8.43C139.11 7.71 138.58 7.19 137.74 7.19C136.47 7.19 135.72 8.37 135.71 10.35L135.77 10.35C136.22 9.61 137.02 9.17 137.94 9.17C139.45 9.17 140.67 10.37 140.66 12.04ZM148.45 10.53C148.45 13.39 147.27 15.03 145.25 15.03C143.23 15.03 142.05 13.39 142.05 10.53C142.06 7.69 143.25 6.04 145.25 6.04C147.25 6.04 148.45 7.69 148.45 10.53ZM156.2 10.53C156.2 13.39 155.02 15.03 153 15.03C150.98 15.03 149.8 13.39 149.8 10.53C149.81 7.69 151 6.04 153 6.04C155 6.04 156.2 7.69 156.2 10.53ZM163.95 10.53C163.95 13.39 162.77 15.03 160.76 15.03C158.74 15.03 157.55 13.39 157.55 10.53C157.56 7.69 158.75 6.04 160.76 6.04C162.75 6.04 163.95 7.69 163.95 10.53ZM117.01 12.58L116.21 14.89L114.81 14.89L117.95 6.16L119.48 6.16L122.62 14.89L121.22 14.89L120.42 12.58L117.01 12.58ZM143.36 10.53C143.36 12.71 144.07 13.9 145.25 13.9C146.43 13.9 147.14 12.71 147.14 10.53C147.14 8.36 146.42 7.16 145.25 7.16C144.08 7.16 143.36 8.36 143.36 10.53ZM151.11 10.53C151.11 12.71 151.82 13.9 153 13.9C154.18 13.9 154.89 12.71 154.89 10.53C154.89 8.36 154.18 7.16 153 7.16C151.83 7.16 151.12 8.36 151.11 10.53ZM158.86 10.53C158.86 12.71 159.58 13.9 160.76 13.9C161.93 13.9 162.64 12.71 162.64 10.53C162.64 8.36 161.93 7.16 160.76 7.16C159.58 7.16 158.87 8.36 158.86 10.53ZM125.01 8.47C125 9.22 125.74 9.56 126.38 9.74L126.38 7.2C125.53 7.32 125.01 7.82 125.01 8.47ZM118.68 7.75L117.4 11.47L120.04 11.47L118.75 7.75L118.68 7.75ZM135.87 12.07C135.87 13.05 136.62 13.9 137.63 13.9C138.62 13.9 139.39 13.09 139.38 12.06C139.39 11.05 138.66 10.24 137.66 10.24C136.65 10.24 135.88 11.09 135.87 12.07ZM127.08 11.16L127.08 13.86C128 13.75 128.65 13.22 128.65 12.46C128.65 11.71 127.97 11.4 127.08 11.16Z" fill="#FFFFFF" fill-opacity="1.000000" fill-rule="evenodd"/>
</svg>
