<svg width="18.000000" height="18.000000" viewBox="0 0 18 18" fill="none" xmlns="http://www.w3.org/2000/svg" xmlns:xlink="http://www.w3.org/1999/xlink">
	<desc>
			Created with Pixso.
	</desc>
	<defs/>
	<path id="Vector" d="M9.18 12.29C9.18 11.7 9.5 11.61 10.04 11.93C11.03 12.48 12.11 13.07 12.11 13.07C12.15 12.75 12.42 12.48 13.01 12.61C13.55 12.75 14.18 12.89 14.18 12.89C14.18 12.89 13.86 12.11 13.68 11.79C13.41 11.15 13.68 10.87 13.95 10.78C13.95 10.78 13.59 10.51 13.32 10.32C12.78 9.96 12.92 9.55 13.41 9.32C14.13 9 15.03 8.58 15.03 8.58C14.76 8.4 14.4 7.94 14.81 7.39C15.17 6.84 15.71 6.11 15.71 6.11L14.09 6.11C13.5 6.11 13.37 5.61 13.37 5.29C13.37 5.29 12.42 5.97 11.75 6.43C11.16 6.84 10.67 6.43 10.76 5.74C10.89 4.69 11.03 3.5 11.03 3.5C10.67 3.73 10.08 3.73 9.81 3.13C9.36 2.35 8.87 1.3 8.87 1.3C8.87 1.3 8.42 2.31 8.01 3.18C7.74 3.77 7.11 3.77 6.8 3.55C6.8 3.55 6.93 4.74 7.07 5.79C7.16 6.48 6.62 6.84 6.08 6.48C5.4 6.02 4.46 5.33 4.46 5.33C4.46 5.65 4.32 6.16 3.74 6.16L2.12 6.16C2.12 6.16 2.66 6.93 3.02 7.44C3.38 7.99 3.06 8.45 2.79 8.63C2.79 8.63 3.69 9.04 4.41 9.36C4.95 9.59 5.09 9.96 4.5 10.37C4.23 10.55 3.87 10.83 3.87 10.83C4.14 10.92 4.41 11.19 4.14 11.84C4.01 12.16 3.65 12.93 3.65 12.93C3.65 12.93 4.28 12.8 4.82 12.66C5.4 12.52 5.72 12.8 5.72 13.12C5.72 13.12 6.75 12.52 7.74 11.97C8.28 11.65 8.6 11.79 8.6 12.34L8.6 13.71C8.6 14.54 8.46 15.45 8.15 15.91C4.28 15.5 1.08 12.38 1.08 8.26C1.08 4 4.59 0.52 8.87 0.52C13.19 0.52 16.65 3.96 16.65 8.22C16.65 12.2 13.64 15.45 9.72 15.87L9.72 16.92C14.31 16.51 17.87 12.75 17.87 8.22C17.91 3.41 13.86 -0.49 8.87 -0.49C3.92 -0.49 -0.13 3.41 -0.13 8.26C-0.13 12.52 2.97 16.05 7.16 16.83C7.88 16.96 8.28 17.06 8.69 17.51C9.14 16.69 9.23 14.95 9.23 13.94L9.23 12.29L9.18 12.29Z" fill="#D82F2E" fill-opacity="1.000000" fill-rule="nonzero"/>
</svg>
