<svg width="18.000000" height="18.000000" viewBox="0 0 18 18" fill="none" xmlns="http://www.w3.org/2000/svg" xmlns:xlink="http://www.w3.org/1999/xlink">
	<desc>
			Created with Pixso.
	</desc>
	<defs>
		<clipPath id="clip24_4249">
			<rect id="Airplane" rx="-0.375000" width="17.250000" height="17.250000" transform="translate(18.000000 0.269531) rotate(90.000000)" fill="white" fill-opacity="0"/>
		</clipPath>
	</defs>
	<g clip-path="url(#clip24_4249)">
		<path id="Vector" d="M8.62 14.89L7.12 14.89L9.37 9.64L10.87 9.64L8.62 14.89Z" stroke="#000000" stroke-opacity="1.000000" stroke-width="1.125000" stroke-linejoin="round"/>
		<path id="Vector" d="M8.62 2.89L7.12 2.89L9.37 8.14L10.87 8.14L8.62 2.89Z" stroke="#000000" stroke-opacity="1.000000" stroke-width="1.125000" stroke-linejoin="round"/>
		<path id="Vector" d="M3.82 9.64L4.12 8.89L3.82 8.14L15.37 8.14C15.78 8.14 16.12 8.48 16.12 8.89C16.12 9.3 15.78 9.64 15.37 9.64L3.82 9.64Z" stroke="#000000" stroke-opacity="1.000000" stroke-width="1.125000" stroke-linejoin="round"/>
		<path id="Vector" d="M2.62 5.14L1.12 5.14L2.62 8.89L1.12 12.64L2.62 12.64L4.12 8.89L2.62 5.14Z" stroke="#000000" stroke-opacity="1.000000" stroke-width="1.125000" stroke-linejoin="round"/>
	</g>
</svg>
