<svg width="49.000000" height="29.000000" viewBox="0 0 49 29" fill="none" xmlns="http://www.w3.org/2000/svg" xmlns:xlink="http://www.w3.org/1999/xlink">
	<desc>
			Created with Pixso.
	</desc>
	<defs>
		<filter id="filter_27_5085_dd" x="-0.666748" y="-0.105469" width="28.666748" height="28.666748" filterUnits="userSpaceOnUse" color-interpolation-filters="sRGB">
			<feFlood flood-opacity="0" result="BackgroundImageFix"/>
			<feColorMatrix in="SourceAlpha" type="matrix" values="0 0 0 0 0 0 0 0 0 0 0 0 0 0 0 0 0 0 127 0" result="hardAlpha"/>
			<feOffset dx="0.666667" dy="1.33333"/>
			<feGaussianBlur stdDeviation="1.77778"/>
			<feComposite in2="hardAlpha" operator="out" k2="-1" k3="1"/>
			<feColorMatrix type="matrix" values="0 0 0 0 0.55686 0 0 0 0 0.60784 0 0 0 0 0.68235 0 0 0 0.2 0"/>
			<feBlend mode="normal" in2="BackgroundImageFix" result="effect_dropShadow_1"/>
			<feBlend mode="normal" in="SourceGraphic" in2="effect_dropShadow_1" result="shape"/>
		</filter>
		<filter id="filter_27_5086_dd" x="1320.000000" y="-1210.000000" width="0.000000" height="0.000000" filterUnits="userSpaceOnUse" color-interpolation-filters="sRGB">
			<feFlood flood-opacity="0" result="BackgroundImageFix"/>
			<feColorMatrix in="SourceAlpha" type="matrix" values="0 0 0 0 0 0 0 0 0 0 0 0 0 0 0 0 0 0 127 0" result="hardAlpha"/>
			<feOffset dx="0.666667" dy="1.33333"/>
			<feGaussianBlur stdDeviation="1.77778"/>
			<feComposite in2="hardAlpha" operator="out" k2="-1" k3="1"/>
			<feColorMatrix type="matrix" values="0 0 0 0 0.55686 0 0 0 0 0.60784 0 0 0 0 0.68235 0 0 0 0.2 0"/>
			<feBlend mode="normal" in2="BackgroundImageFix" result="effect_dropShadow_1"/>
			<feBlend mode="normal" in="SourceGraphic" in2="effect_dropShadow_1" result="shape"/>
		</filter>
	</defs>
	<rect id="Switch" rx="10.312500" width="46.125000" height="20.625000" transform="translate(2.687500 2.582031)" fill="#000000" fill-opacity="0.200000"/>
	<g filter="url(#filter_27_5085_dd)">
		<path id="Knob" d="M13 21.89C17.97 21.89 22 17.86 22 12.89C22 7.92 17.97 3.89 13 3.89C8.02 3.89 4 7.92 4 12.89C4 17.86 8.02 21.89 13 21.89Z" fill="#FFFFFF" fill-opacity="0.600000" fill-rule="evenodd"/>
	</g>
	<path id="Knob" d="M22 12.89C22 17.86 17.97 21.89 13 21.89C8.02 21.89 4 17.86 4 12.89C4 7.92 8.02 3.89 13 3.89C17.97 3.89 22 7.92 22 12.89ZM21.04 11.06C21.18 11.65 21.25 12.26 21.25 12.89C21.25 13.51 21.18 14.12 21.04 14.72C20.94 15.19 20.79 15.65 20.6 16.1C20.4 16.56 20.17 17 19.9 17.41C19.59 17.88 19.24 18.32 18.83 18.72C18.42 19.13 17.98 19.49 17.51 19.8C17.1 20.06 16.67 20.3 16.21 20.49C15.76 20.68 15.29 20.83 14.82 20.94C14.23 21.07 13.62 21.14 13 21.14C12.37 21.14 11.76 21.07 11.17 20.94C10.7 20.83 10.23 20.68 9.78 20.49C9.32 20.3 8.89 20.06 8.48 19.8C8.01 19.49 7.57 19.13 7.16 18.72C6.76 18.32 6.4 17.88 6.09 17.41C5.82 17 5.59 16.56 5.39 16.1C5.2 15.65 5.05 15.19 4.95 14.72C4.81 14.12 4.75 13.51 4.75 12.89C4.75 12.26 4.81 11.65 4.95 11.06C5.05 10.59 5.2 10.13 5.39 9.68C5.59 9.22 5.82 8.78 6.09 8.37C6.4 7.9 6.76 7.46 7.16 7.06C7.57 6.65 8.01 6.29 8.48 5.98C8.89 5.71 9.32 5.48 9.78 5.29C10.23 5.1 10.7 4.95 11.17 4.84C11.76 4.71 12.37 4.64 13 4.64C13.62 4.64 14.23 4.71 14.82 4.84C15.29 4.95 15.76 5.1 16.21 5.29C16.67 5.48 17.1 5.71 17.51 5.98C17.98 6.29 18.42 6.65 18.83 7.06C19.24 7.46 19.59 7.9 19.9 8.37C20.17 8.78 20.4 9.22 20.6 9.68C20.79 10.13 20.94 10.59 21.04 11.06Z" fill="#FFFFFF" fill-opacity="0.500000" fill-rule="evenodd"/>
	<g opacity="0.000000" filter="url(#filter_27_5086_dd)">
		<path id="Knob" d="M38.5 21.89C43.47 21.89 47.5 17.86 47.5 12.89C47.5 7.92 43.47 3.89 38.5 3.89C33.52 3.89 29.5 7.92 29.5 12.89C29.5 17.86 33.52 21.89 38.5 21.89Z" fill="#FFFFFF" fill-opacity="0.600000" fill-rule="evenodd"/>
	</g>
	<path id="Knob" d="M47.5 12.89C47.5 17.86 43.47 21.89 38.5 21.89C33.52 21.89 29.5 17.86 29.5 12.89C29.5 7.92 33.52 3.89 38.5 3.89C43.47 3.89 47.5 7.92 47.5 12.89ZM46.54 11.06C46.68 11.65 46.75 12.26 46.75 12.89C46.75 13.51 46.68 14.12 46.54 14.72C46.44 15.19 46.29 15.65 46.1 16.1C45.9 16.56 45.67 17 45.4 17.41C45.09 17.88 44.74 18.32 44.33 18.72C43.92 19.13 43.48 19.49 43.01 19.8C42.6 20.06 42.17 20.3 41.71 20.49C41.26 20.68 40.79 20.83 40.32 20.94C39.73 21.07 39.12 21.14 38.5 21.14C37.87 21.14 37.26 21.07 36.67 20.94C36.2 20.83 35.73 20.68 35.28 20.49C34.82 20.3 34.39 20.06 33.98 19.8C33.51 19.49 33.07 19.13 32.66 18.72C32.25 18.32 31.9 17.88 31.59 17.41C31.32 17 31.09 16.56 30.89 16.1C30.7 15.65 30.55 15.19 30.45 14.72C30.31 14.12 30.25 13.51 30.25 12.89C30.25 12.26 30.31 11.65 30.45 11.06C30.55 10.59 30.7 10.13 30.89 9.68C31.09 9.22 31.32 8.78 31.59 8.37C31.9 7.9 32.25 7.46 32.66 7.06C33.07 6.65 33.51 6.29 33.98 5.98C34.39 5.71 34.82 5.48 35.28 5.29C35.73 5.1 36.2 4.95 36.67 4.84C37.26 4.71 37.87 4.64 38.5 4.64C39.12 4.64 39.73 4.71 40.32 4.84C40.79 4.95 41.26 5.1 41.71 5.29C42.17 5.48 42.6 5.71 43.01 5.98C43.48 6.29 43.92 6.65 44.33 7.06C44.74 7.46 45.09 7.9 45.4 8.37C45.67 8.78 45.9 9.22 46.1 9.68C46.29 10.13 46.44 10.59 46.54 11.06Z" fill="#FFFFFF" fill-opacity="0.500000" fill-rule="evenodd"/>
</svg>
