<svg width="137.000000" height="36.000000" viewBox="0 0 137 36" fill="none" xmlns="http://www.w3.org/2000/svg" xmlns:xlink="http://www.w3.org/1999/xlink">
	<desc>
			Created with Pixso.
	</desc>
	<defs>
		<clipPath id="clip1_3247">
			<rect id="Arrow Right" width="16.000000" height="16.000000" transform="translate(11.798828 6.000000)" fill="white" fill-opacity="0"/>
		</clipPath>
		<clipPath id="clip1_3249">
			<rect id="Arrow Right" width="16.000000" height="16.000000" transform="translate(104.798828 10.000000)" fill="white" fill-opacity="0"/>
		</clipPath>
	</defs>
	<path id="Start course" d="M23.36 16.03L21.99 16.03C21.89 15.15 21.12 14.64 20.03 14.64C18.87 14.64 18.13 15.24 18.13 16.04C18.13 16.95 19.11 17.29 19.85 17.48L20.77 17.72C21.98 18.02 23.49 18.68 23.49 20.38C23.49 21.98 22.21 23.15 20 23.15C17.88 23.15 16.55 22.09 16.46 20.38L17.89 20.38C17.97 21.41 18.89 21.9 19.99 21.9C21.2 21.9 22.08 21.29 22.08 20.37C22.08 19.53 21.3 19.2 20.29 18.93L19.17 18.62C17.65 18.21 16.71 17.44 16.71 16.13C16.71 14.5 18.17 13.41 20.06 13.41C21.99 13.41 23.32 14.51 23.36 16.03ZM26.94 15.9L28.4 15.9L28.4 17.01L26.94 17.01L26.94 20.91C26.94 21.71 27.35 21.86 27.79 21.86C28.02 21.86 28.18 21.82 28.28 21.8L28.53 22.94C28.36 23 28.07 23.08 27.63 23.09C26.54 23.11 25.56 22.49 25.56 21.2L25.56 17.01L24.52 17.01L24.52 15.9L25.56 15.9L25.56 14.21L26.94 14.21L26.94 15.9ZM44.59 15.9L46.04 15.9L46.04 17.01L44.59 17.01L44.59 20.91C44.59 21.71 44.99 21.86 45.44 21.86C45.66 21.86 45.83 21.82 45.92 21.8L46.17 22.94C46.01 23 45.71 23.08 45.28 23.09C44.19 23.11 43.2 22.49 43.21 21.2L43.21 17.01L42.17 17.01L42.17 15.9L43.21 15.9L43.21 14.21L44.59 14.21L44.59 15.9ZM38.7 23L37.32 23L37.32 15.9L38.66 15.9L38.66 17.03L38.73 17.03C38.99 16.27 39.7 15.8 40.53 15.8C40.71 15.8 40.98 15.81 41.12 15.83L41.12 17.15C41 17.12 40.68 17.07 40.39 17.07C39.42 17.07 38.7 17.74 38.7 18.67L38.7 23ZM75.33 23L73.95 23L73.95 15.9L75.28 15.9L75.28 17.03L75.36 17.03C75.61 16.27 76.32 15.8 77.16 15.8C77.33 15.8 77.6 15.81 77.74 15.83L77.74 17.15C77.63 17.12 77.31 17.07 77.02 17.07C76.04 17.07 75.33 17.74 75.33 18.67L75.33 23ZM34.08 22.03C33.82 22.56 33.16 23.15 31.99 23.15C30.64 23.15 29.59 22.39 29.59 20.99C29.59 19.38 30.96 19.03 32.31 18.87C33.58 18.73 34.1 18.73 34.1 18.23L34.1 18.2C34.1 17.4 33.64 16.93 32.75 16.93C31.82 16.93 31.31 17.41 31.1 17.92L29.8 17.62C30.27 16.33 31.45 15.81 32.73 15.81C33.86 15.81 35.48 16.22 35.48 18.29L35.48 23L34.13 23L34.13 22.03L34.08 22.03ZM56.91 20.75C56.76 22.13 55.67 23.14 53.99 23.14C51.94 23.14 50.69 21.62 50.69 19.48C50.69 17.32 51.98 15.81 53.98 15.81C55.59 15.81 56.76 16.76 56.91 18.19L55.56 18.19C55.42 17.53 54.88 16.97 54 16.97C52.85 16.97 52.08 17.93 52.08 19.45C52.08 21 52.84 21.97 54 21.97C54.79 21.97 55.39 21.52 55.56 20.75L56.91 20.75ZM64.68 19.48C64.68 21.67 63.38 23.14 61.38 23.14C59.38 23.14 58.07 21.67 58.07 19.48C58.07 17.28 59.38 15.81 61.38 15.81C63.38 15.81 64.68 17.28 64.68 19.48ZM81.57 15.81C83.11 15.81 83.97 16.53 84.26 17.63L83 17.86C82.84 17.38 82.45 16.9 81.59 16.9C80.8 16.9 80.21 17.29 80.22 17.84C80.21 18.32 80.55 18.58 81.33 18.77L82.45 19.02C83.76 19.33 84.39 19.95 84.39 20.94C84.39 22.23 83.21 23.14 81.5 23.14C79.9 23.14 78.86 22.43 78.63 21.18L79.96 20.97C80.13 21.67 80.66 22.03 81.49 22.03C82.39 22.03 82.98 21.6 82.98 21.05C82.98 20.61 82.66 20.3 81.98 20.15L80.78 19.88C79.45 19.59 78.84 18.92 78.84 17.91C78.84 16.66 79.97 15.81 81.57 15.81ZM91.92 21.22C91.6 22.38 90.51 23.14 88.96 23.14C86.87 23.14 85.59 21.7 85.59 19.49C85.59 17.32 86.89 15.81 88.87 15.81C90.47 15.81 92.01 16.81 92.01 19.38L92.01 19.87L86.96 19.87C87 21.23 87.8 22 88.98 22C89.76 22 90.36 21.66 90.61 20.99L91.92 21.22ZM69.05 21.83C69.82 21.83 70.72 21.26 70.71 20.05L70.71 15.9L72.1 15.9L72.1 23L70.74 23L70.74 21.77L70.67 21.77C70.34 22.53 69.61 23.09 68.54 23.09C67.18 23.09 66.22 22.17 66.22 20.41L66.22 15.9L67.6 15.9L67.6 20.25C67.6 21.21 68.19 21.83 69.05 21.83ZM88.88 16.95C87.75 16.95 87.02 17.82 86.97 18.83L90.66 18.83C90.65 17.75 89.95 16.95 88.88 16.95ZM59.46 19.48C59.46 20.84 60.07 21.98 61.38 21.98C62.68 21.98 63.29 20.84 63.29 19.48C63.29 18.12 62.68 16.96 61.38 16.96C60.07 16.96 59.46 18.12 59.46 19.48ZM30.94 21.01C30.94 21.69 31.5 22.04 32.28 22.04C33.43 22.04 34.1 21.28 34.1 20.44L34.1 19.52C33.91 19.72 32.84 19.84 32.39 19.9C31.59 20.01 30.94 20.27 30.94 21.01Z" fill="#FFFFFF" fill-opacity="0.600000" fill-rule="evenodd"/>
	<g clip-path="url(#clip1_3249)">
		<path id="Vector" d="M118.79 18L106.79 " stroke="#FFFFFF" stroke-opacity="0.600000" stroke-width="1.500000" stroke-linejoin="round" stroke-linecap="round"/>
		<path id="Vector" d="M114.79 14L118.79 18L114.79 " stroke="#FFFFFF" stroke-opacity="0.600000" stroke-width="1.500000" stroke-linejoin="round" stroke-linecap="round"/>
	</g>
	<rect id="Button Ghost" rx="7.500000" width="136.000000" height="35.000000" transform="translate(0.298828 0.500000)" stroke="#FFFFFF" stroke-opacity="0.600000" stroke-width="1.000000"/>
</svg>
