<svg width="225.000000" height="53.000000" viewBox="0 0 225 53" fill="none" xmlns="http://www.w3.org/2000/svg" xmlns:xlink="http://www.w3.org/1999/xlink">
	<desc>
			Created with Pixso.
	</desc>
	<defs>
		<filter id="filter_70_5244_dd" x="119.423096" y="30.423077" width="21.807617" height="21.807693" filterUnits="userSpaceOnUse" color-interpolation-filters="sRGB">
			<feFlood flood-opacity="0" result="BackgroundImageFix"/>
			<feColorMatrix in="SourceAlpha" type="matrix" values="0 0 0 0 0 0 0 0 0 0 0 0 0 0 0 0 0 0 127 0" result="hardAlpha"/>
			<feOffset dx="2.07692" dy="2.07692"/>
			<feGaussianBlur stdDeviation="1.38462"/>
			<feComposite in2="hardAlpha" operator="out" k2="-1" k3="1"/>
			<feColorMatrix type="matrix" values="0 0 0 0 0 0 0 0 0 0 0 0 0 0 0 0 0 0 0.2 0"/>
			<feBlend mode="normal" in2="BackgroundImageFix" result="effect_dropShadow_1"/>
			<feBlend mode="normal" in="SourceGraphic" in2="effect_dropShadow_1" result="shape"/>
		</filter>
		<linearGradient id="paint_linear_70_5243_0" x1="66.750000" y1="37.000000" x2="66.750000" y2="41.500000" gradientUnits="userSpaceOnUse">
			<stop stop-color="#4C89FF"/>
			<stop offset="1.000000" stop-color="#3F7AEC"/>
		</linearGradient>
		<linearGradient id="paint_linear_70_5244_0" x1="123.576927" y1="35.615383" x2="135.000000" y2="48.076923" gradientUnits="userSpaceOnUse">
			<stop stop-color="#4C89FF"/>
			<stop offset="1.000000" stop-color="#376ACD"/>
		</linearGradient>
		<linearGradient id="paint_linear_70_5244_1" x1="123.556038" y1="34.788792" x2="131.547424" y2="45.418106" gradientUnits="userSpaceOnUse">
			<stop stop-color="#FFFFFF" stop-opacity="0.101961"/>
			<stop offset="1.000000" stop-color="#000000" stop-opacity="0.301961"/>
		</linearGradient>
	</defs>
	<path id="Up to CA$6000" d="M64.82 23.52L64.01 23.52L64.01 22.41C61.96 22.28 60.7 21.16 60.6 19.43L62.14 19.43C62.23 20.42 63.01 20.94 64.01 21.05L64.01 17.66L63.53 17.54C61.89 17.09 60.88 16.26 60.88 14.85C60.88 13.23 62.21 12.11 64.01 11.94L64.01 10.79L64.82 10.79L64.82 11.93C66.71 12.06 68 13.2 68.04 14.74L66.56 14.74C66.46 13.9 65.79 13.38 64.82 13.27L64.82 16.46L65.25 16.57C66.55 16.89 68.18 17.6 68.18 19.43C68.18 21.06 66.96 22.27 64.82 22.4L64.82 23.52ZM45.31 11.92C47.46 11.92 49.17 13.2 49.51 15.37L47.96 15.37C47.71 14.06 46.62 13.33 45.32 13.33C43.57 13.33 42.25 14.68 42.25 17.16C42.25 19.64 43.57 20.98 45.32 20.98C46.61 20.98 47.7 20.27 47.96 18.96L49.51 18.97C49.18 20.98 47.54 22.39 45.31 22.39C42.66 22.39 40.73 20.41 40.73 17.16C40.73 13.9 42.67 11.92 45.31 11.92ZM76.97 18.92C76.97 20.87 75.56 22.41 73.43 22.39C71.62 22.37 69.71 21.25 69.72 17.5C69.72 13.96 71.19 11.92 73.56 11.92C75.38 11.92 76.65 13.1 76.88 14.71L75.36 14.71C75.15 13.86 74.54 13.27 73.56 13.27C72.07 13.27 71.19 14.64 71.19 16.95L71.26 16.95C71.78 16.09 72.71 15.57 73.79 15.57C75.55 15.57 76.97 16.97 76.97 18.92ZM86.05 17.16C86.05 20.5 84.67 22.41 82.32 22.41C79.96 22.41 78.58 20.49 78.58 17.16C78.59 13.84 79.98 11.92 82.32 11.92C84.65 11.92 86.05 13.85 86.05 17.16ZM95.09 17.16C95.09 20.5 93.72 22.41 91.36 22.41C89.01 22.41 87.63 20.49 87.63 17.16C87.64 13.84 89.03 11.92 91.36 11.92C93.7 11.92 95.09 13.85 95.09 17.16ZM104.14 17.16C104.14 20.5 102.76 22.41 100.41 22.41C98.05 22.41 96.67 20.49 96.67 17.16C96.68 13.84 98.07 11.92 100.41 11.92C102.74 11.92 104.14 13.85 104.14 17.16ZM7.66 18.64L7.66 12.06L9.2 12.06L9.2 18.76C9.2 20.9 7.6 22.41 5.16 22.41C2.72 22.41 1.11 20.9 1.11 18.76L1.11 12.06L2.65 12.06L2.65 18.64C2.65 20.02 3.61 21.01 5.16 21.01C6.71 21.01 7.66 20.02 7.66 18.64ZM53.08 19.55L52.15 22.25L50.52 22.25L54.18 12.06L55.95 12.06L59.62 22.25L57.99 22.25L57.06 19.55L53.08 19.55ZM25.67 14.61L27.23 14.61L27.23 15.8L25.67 15.8L25.67 20C25.67 20.86 26.1 21.02 26.58 21.02C26.82 21.02 27 20.98 27.1 20.96L27.37 22.19C27.2 22.25 26.88 22.34 26.41 22.34C25.24 22.37 24.18 21.7 24.18 20.31L24.18 15.8L23.06 15.8L23.06 14.61L24.18 14.61L24.18 12.78L25.67 12.78L25.67 14.61ZM80.11 17.16C80.11 19.71 80.94 21.09 82.32 21.09C83.69 21.09 84.52 19.71 84.52 17.16C84.52 14.62 83.69 13.23 82.32 13.23C80.95 13.23 80.12 14.62 80.11 17.16ZM89.16 17.16C89.16 19.71 89.99 21.09 91.36 21.09C92.73 21.09 93.57 19.71 93.57 17.16C93.57 14.62 92.73 13.23 91.36 13.23C89.99 13.23 89.16 14.62 89.16 17.16ZM98.2 17.16C98.2 19.71 99.03 21.09 100.41 21.09C101.78 21.09 102.61 19.71 102.61 17.16C102.61 14.62 101.78 13.23 100.41 13.23C99.03 13.23 98.2 14.62 98.2 17.16ZM62.41 14.76C62.4 15.63 63.26 16.02 64.01 16.24L64.01 13.28C63.02 13.42 62.41 14 62.41 14.76ZM55.03 13.91L53.53 18.26L56.61 18.26L55.11 13.91L55.03 13.91ZM12.81 25.11L11.32 25.11L11.32 14.61L12.77 14.61L12.77 15.85L12.89 15.85C13.16 15.37 13.67 14.51 15.09 14.51C16.93 14.51 18.3 15.97 18.3 18.44C18.3 20.91 16.95 22.4 15.1 22.4C13.71 22.4 13.16 21.54 12.89 21.06L12.81 21.06L12.81 25.11ZM35.57 18.46C35.57 20.82 34.16 22.4 32.01 22.4C29.86 22.4 28.45 20.82 28.45 18.46C28.45 16.09 29.86 14.51 32.01 14.51C34.16 14.51 35.57 16.09 35.57 18.46ZM29.95 18.46C29.95 19.92 30.61 21.15 32.02 21.15C33.42 21.15 34.07 19.92 34.07 18.46C34.07 17 33.42 15.75 32.02 15.75C30.61 15.75 29.95 17 29.95 18.46ZM14.77 15.77C13.47 15.77 12.78 16.83 12.78 18.43C12.78 20.03 13.49 21.13 14.77 21.13C16.1 21.13 16.79 19.96 16.79 18.43C16.79 16.91 16.12 15.77 14.77 15.77ZM71.38 18.95C71.38 20.1 72.24 21.09 73.43 21.09C74.59 21.09 75.48 20.14 75.47 18.94C75.48 17.76 74.62 16.82 73.46 16.82C72.29 16.82 71.38 17.82 71.38 18.95ZM64.82 17.89L64.82 21.04C65.91 20.92 66.66 20.3 66.66 19.41C66.66 18.54 65.87 18.17 64.82 17.89Z" fill="#FFFFFF" fill-opacity="1.000000" fill-rule="evenodd"/>
	<path id="Clear" d="M194.37 11.92C196.52 11.92 198.22 13.2 198.57 15.37L197.02 15.37C196.76 14.06 195.68 13.33 194.38 13.33C192.63 13.33 191.31 14.68 191.31 17.16C191.31 19.64 192.63 20.98 194.38 20.98C195.66 20.98 196.76 20.27 197.02 18.96L198.57 18.97C198.24 20.98 196.6 22.39 194.37 22.39C191.72 22.39 189.79 20.41 189.79 17.16C189.79 13.9 191.73 11.92 194.37 11.92ZM200.29 12.06L201.78 12.06L201.78 22.25L200.29 22.25L200.29 12.06ZM221.45 22.25L219.97 22.25L219.97 14.61L221.41 14.61L221.41 15.82L221.48 15.82C221.76 15 222.53 14.49 223.42 14.49C223.61 14.49 223.9 14.51 224.06 14.53L224.06 15.95C223.94 15.91 223.59 15.86 223.28 15.86C222.23 15.86 221.45 16.58 221.45 17.58L221.45 22.25ZM210.25 20.33C209.91 21.58 208.73 22.4 207.07 22.4C204.81 22.4 203.43 20.85 203.43 18.48C203.43 16.13 204.83 14.51 206.96 14.51C208.69 14.51 210.34 15.59 210.34 18.35L210.34 18.87L204.91 18.87C204.95 20.34 205.81 21.17 207.08 21.17C207.93 21.17 208.57 20.8 208.84 20.08L210.25 20.33ZM216.48 21.2C216.2 21.77 215.48 22.41 214.22 22.41C212.77 22.41 211.64 21.59 211.64 20.09C211.64 18.35 213.12 17.98 214.57 17.81C215.94 17.65 216.5 17.65 216.5 17.11L216.5 17.08C216.5 16.22 216.01 15.71 215.05 15.71C214.05 15.71 213.49 16.23 213.27 16.78L211.87 16.46C212.37 15.07 213.65 14.51 215.03 14.51C216.24 14.51 217.99 14.95 217.99 17.17L217.99 22.25L216.54 22.25L216.54 21.2L216.48 21.2ZM206.97 15.74C205.76 15.74 204.98 16.68 204.92 17.76L208.89 17.76C208.88 16.59 208.13 15.74 206.97 15.74ZM213.1 20.11C213.1 20.84 213.7 21.22 214.54 21.22C215.78 21.22 216.5 20.4 216.5 19.49L216.5 18.51C216.29 18.72 215.15 18.85 214.66 18.91C213.8 19.03 213.1 19.31 213.1 20.11Z" fill="#FFFFFF" fill-opacity="1.000000" fill-rule="evenodd"/>
	<rect id="Progress Bar" rx="4.312500" width="224.625000" height="8.625000" transform="translate(0.187500 34.937500)" fill="#000000" fill-opacity="0.200000"/>
	<rect id="Rectangle 106" x="2.250000" y="37.000000" rx="2.250000" width="129.000000" height="4.500000" fill="url(#paint_linear_70_5243_0)" fill-opacity="1.000000"/>
	<g filter="url(#filter_70_5244_dd)">
		<rect id="Rectangle 30" x="121.500000" y="32.500000" rx="6.750000" width="13.500000" height="13.500000" fill="url(#paint_linear_70_5244_0)" fill-opacity="1.000000"/>
	</g>
	<rect id="Rectangle 30" x="121.687500" y="32.687500" rx="6.562500" width="13.125000" height="13.125000" stroke="url(#paint_linear_70_5244_1)" stroke-opacity="1.000000" stroke-width="0.375000" style=""/>
	<rect id="Progress Bar" rx="4.312500" width="224.625000" height="8.625000" transform="translate(0.187500 34.937500)" stroke="#FFFFFF" stroke-opacity="0.200000" stroke-width="0.375000"/>
	<path id="Rectangle 107" d="M106.5 -0.25L149.25 -0.26C154.63 -0.26 159 4.11 159 9.5C159 14.88 154.63 19.25 149.25 19.25L134.43 19.25C133.56 19.25 132.73 19.62 132.16 20.28L128.44 24.59C128.14 24.93 127.6 24.93 127.3 24.59L123.58 20.28C123.01 19.62 122.18 19.25 121.31 19.25L106.5 19.25C101.11 19.25 96.75 14.88 96.75 9.5C96.75 4.11 101.11 -0.25 106.5 -0.25Z" fill="#4C89FF" fill-opacity="1.000000" fill-rule="nonzero"/>
	<path id="CA$ 6000" d="M127.08 15.83L126.38 15.83L126.38 14.88C124.62 14.77 123.54 13.82 123.46 12.33L124.78 12.33C124.85 13.18 125.52 13.63 126.38 13.72L126.38 10.82L125.97 10.71C124.56 10.33 123.69 9.62 123.69 8.41C123.69 7.02 124.83 6.06 126.38 5.91L126.38 4.93L127.08 4.93L127.08 5.91C128.69 6.01 129.8 6.99 129.83 8.31L128.57 8.31C128.48 7.59 127.91 7.14 127.08 7.05L127.08 9.79L127.44 9.88C128.55 10.15 129.95 10.76 129.95 12.33C129.95 13.73 128.91 14.76 127.08 14.88L127.08 15.83ZM110.35 5.9C112.19 5.9 113.66 6.99 113.95 8.86L112.62 8.86C112.4 7.73 111.47 7.1 110.36 7.1C108.86 7.1 107.73 8.26 107.73 10.38C107.73 12.52 108.86 13.66 110.36 13.66C111.46 13.66 112.4 13.05 112.62 11.93L113.95 11.94C113.67 13.66 112.26 14.87 110.35 14.87C108.08 14.87 106.42 13.17 106.42 10.38C106.42 7.59 108.09 5.9 110.35 5.9ZM140.66 11.89C140.67 13.57 139.46 14.88 137.63 14.87C136.08 14.85 134.45 13.89 134.45 10.68C134.45 7.64 135.72 5.9 137.74 5.9C139.3 5.9 140.39 6.91 140.59 8.29L139.29 8.29C139.11 7.56 138.58 7.05 137.74 7.05C136.47 7.05 135.72 8.23 135.71 10.21L135.77 10.21C136.22 9.47 137.02 9.03 137.94 9.03C139.45 9.03 140.67 10.22 140.66 11.89ZM148.45 10.39C148.45 13.25 147.27 14.89 145.25 14.89C143.23 14.89 142.05 13.24 142.05 10.39C142.06 7.54 143.25 5.9 145.25 5.9C147.25 5.9 148.45 7.55 148.45 10.39ZM156.2 10.39C156.2 13.25 155.02 14.89 153 14.89C150.98 14.89 149.8 13.24 149.8 10.39C149.81 7.54 151 5.9 153 5.9C155 5.9 156.2 7.55 156.2 10.39ZM163.95 10.39C163.95 13.25 162.77 14.89 160.76 14.89C158.74 14.89 157.55 13.24 157.55 10.39C157.56 7.54 158.75 5.9 160.76 5.9C162.75 5.9 163.95 7.55 163.95 10.39ZM117.01 12.44L116.21 14.75L114.81 14.75L117.95 6.02L119.48 6.02L122.62 14.75L121.22 14.75L120.42 12.44L117.01 12.44ZM143.36 10.39C143.36 12.57 144.07 13.75 145.25 13.75C146.43 13.75 147.14 12.57 147.14 10.39C147.14 8.21 146.42 7.01 145.25 7.01C144.08 7.01 143.36 8.21 143.36 10.39ZM151.11 10.39C151.11 12.57 151.82 13.75 153 13.75C154.18 13.75 154.89 12.57 154.89 10.39C154.89 8.21 154.18 7.01 153 7.01C151.83 7.01 151.12 8.21 151.11 10.39ZM158.86 10.39C158.86 12.57 159.58 13.75 160.76 13.75C161.93 13.75 162.64 12.57 162.64 10.39C162.64 8.21 161.93 7.01 160.76 7.01C159.58 7.01 158.87 8.21 158.86 10.39ZM125.01 8.33C125 9.08 125.74 9.41 126.38 9.6L126.38 7.06C125.53 7.18 125.01 7.68 125.01 8.33ZM118.68 7.6L117.4 11.33L120.04 11.33L118.75 7.6L118.68 7.6ZM135.87 11.92C135.87 12.91 136.62 13.76 137.63 13.76C138.62 13.76 139.39 12.94 139.38 11.91C139.39 10.9 138.66 10.1 137.66 10.1C136.65 10.1 135.88 10.95 135.87 11.92ZM127.08 11.01L127.08 13.71C128 13.61 128.65 13.08 128.65 12.32C128.65 11.57 127.97 11.26 127.08 11.01Z" fill="#FFFFFF" fill-opacity="1.000000" fill-rule="evenodd"/>
</svg>
